<?xml version="1.0" standalone="no"?>
<!DOCTYPE svg PUBLIC "-//W3C//DTD SVG 20010904//EN"
 "http://www.w3.org/TR/2001/REC-SVG-20010904/DTD/svg10.dtd">
<svg version="1.0" xmlns="http://www.w3.org/2000/svg"
 width="999.000000pt" height="999.000000pt" viewBox="0 0 999.000000 999.000000"
 preserveAspectRatio="xMidYMid meet">
<metadata>
Created by potrace 1.14, written by Peter Selinger 2001-2017
</metadata>
<g transform="translate(0.000000,999.000000) scale(0.100000,-0.100000)"
fill="#000000" stroke="none">
<path d="M8470 6115 c-179 -179 -328 -325 -332 -325 -4 0 -132 126 -286 280
l-279 280 -142 0 c-77 0 -141 -3 -141 -7 0 -4 399 -407 886 -894 l886 -886
144 0 c79 0 144 3 144 6 0 3 -164 170 -365 370 -201 200 -365 366 -365 370 0
3 253 259 562 568 l563 563 -475 0 -475 0 -325 -325z m390 -270 l-391 -391
-90 88 c-49 49 -89 91 -89 94 0 3 134 139 298 302 l297 298 183 0 183 0 -391
-391z"/>
<path d="M545 6340 c-3 -14 -7 -36 -10 -50 -2 -14 -14 -79 -25 -145 -12 -66
-23 -131 -26 -145 -2 -14 -7 -40 -10 -59 -3 -18 -8 -43 -10 -55 -5 -23 -6 -32
-29 -161 -8 -49 -17 -101 -20 -115 -11 -66 -106 -609 -111 -635 -2 -16 -11
-66 -19 -110 -25 -137 -47 -259 -51 -290 -3 -16 -11 -64 -19 -105 -39 -205
-42 -236 -19 -247 22 -11 910 -10 994 1 223 29 495 158 666 317 88 81 162 168
223 262 24 37 44 67 45 67 0 0 2 -35 2 -78 7 -338 259 -605 585 -616 78 -3
117 0 216 18 63 12 149 50 228 102 l27 18 -7 -32 c-4 -20 -2 -38 7 -50 12 -16
33 -18 248 -17 l235 0 22 125 c12 69 29 163 38 210 8 47 17 95 20 107 2 11 7
43 10 70 4 26 11 64 15 83 5 19 11 53 15 74 4 32 33 199 51 296 2 14 7 41 10
60 3 19 7 37 9 39 2 1 43 3 92 3 l88 1 -2 -34 c-1 -19 -22 -153 -48 -299 -59
-332 -61 -433 -14 -540 41 -92 128 -155 256 -187 72 -17 334 -23 404 -10 l36
7 23 133 c12 72 25 145 29 162 l7 30 32 -60 c142 -266 448 -374 773 -274 57
17 99 38 188 93 10 7 12 2 6 -23 -5 -23 -2 -37 8 -49 14 -15 42 -17 249 -17
l233 0 27 150 c15 83 29 164 32 180 5 32 24 142 57 325 12 63 23 126 25 140 3
14 13 75 24 135 11 61 22 126 25 145 3 19 15 85 26 145 11 61 22 128 25 149 3
22 7 43 9 46 2 3 6 31 10 62 5 41 3 58 -7 64 -7 5 -118 9 -246 9 -256 1 -234
6 -248 -67 l-6 -38 -41 35 c-86 74 -214 113 -357 110 -109 -3 -159 -11 -244
-41 -159 -55 -309 -163 -425 -304 -12 -14 -19 -18 -17 -10 3 8 15 77 27 153
17 105 19 141 10 150 -7 7 -58 11 -149 12 -152 1 -148 -1 -131 70 4 17 10 46
13 65 8 50 16 92 21 115 4 20 14 93 18 129 4 41 -25 41 -159 2 -71 -20 -136
-39 -144 -41 -70 -16 -197 -57 -206 -68 -6 -6 -19 -59 -29 -117 -24 -141 -23
-139 -29 -148 -2 -4 -158 -7 -345 -7 -297 0 -342 -1 -346 -15 -2 -8 -7 -32
-11 -53 l-6 -38 -27 24 c-119 112 -341 152 -550 101 -86 -21 -231 -90 -301
-143 -74 -56 -163 -144 -214 -211 l-41 -55 1 107 c1 59 -2 125 -6 145 -5 21
-11 54 -14 75 -14 91 -74 229 -140 322 -114 159 -289 270 -500 318 -85 19
-126 21 -583 22 l-492 2 -6 -26z m863 -494 c225 -24 360 -183 360 -425 0 -194
-72 -375 -203 -507 -76 -77 -146 -121 -242 -153 -84 -28 -141 -34 -333 -33
-217 0 -200 -2 -194 25 2 12 7 36 9 52 15 84 25 143 30 175 3 19 10 55 15 80
9 42 72 401 85 480 3 19 7 46 10 60 5 26 12 65 20 115 20 117 26 134 48 137
39 5 330 1 395 -6z m1712 -527 c107 -23 181 -116 186 -236 7 -169 -87 -326
-235 -397 -59 -28 -75 -31 -161 -31 -110 0 -166 20 -217 78 -113 129 -61 397
101 516 96 72 207 96 326 70z m2563 -3 c137 -40 201 -176 161 -345 -42 -181
-177 -302 -355 -317 -183 -16 -298 75 -305 241 -9 196 109 366 290 420 59 18
151 18 209 1z m-903 -38 c0 -4 -11 -31 -24 -60 -29 -66 -51 -135 -67 -213 -14
-69 -17 -243 -6 -297 l8 -38 -63 0 c-89 0 -134 9 -158 32 -24 23 -24 31 14
238 13 74 32 181 42 237 l17 102 31 3 c60 6 206 3 206 -4z"/>
<path d="M7469 4940 l1410 -1410 466 0 c256 0 465 3 465 8 0 4 -631 638 -1403
1410 l-1402 1402 -474 0 -473 0 1411 -1410z m-554 1209 c5 -5 2117 -2115 2287
-2286 l128 -128 -186 0 -185 1 -1205 1204 c-983 984 -1200 1206 -1184 1210 24
6 339 5 345 -1z"/>
<path d="M6610 4255 l-635 -635 475 0 475 0 399 399 399 399 -74 71 -74 71
-367 -367 -368 -368 -180 -1 c-99 0 -180 2 -180 5 0 3 205 209 455 458 250
250 455 456 455 458 0 4 -140 145 -144 145 -1 0 -287 -286 -636 -635z"/>
</g>
</svg>
